<?xml version="1.0" encoding="UTF-8" standalone="no"?>
<svg
   xmlns:dc="http://purl.org/dc/elements/1.1/"
   xmlns:cc="http://creativecommons.org/ns#"
   xmlns:rdf="http://www.w3.org/1999/02/22-rdf-syntax-ns#"
   xmlns:svg="http://www.w3.org/2000/svg"
   xmlns="http://www.w3.org/2000/svg"
   xmlns:sodipodi="http://sodipodi.sourceforge.net/DTD/sodipodi-0.dtd"
   xmlns:inkscape="http://www.inkscape.org/namespaces/inkscape"
   width="40px"
   height="46px"
   viewBox="0 0 40 46"
   version="1.1"
   id="svg4700"
   inkscape:version="0.91 r13725"
   sodipodi:docname="devbook-logo.svg">
  <metadata
     id="metadata4720">
    <rdf:RDF>
      <cc:Work
         rdf:about="">
        <dc:format>image/svg+xml</dc:format>
        <dc:type
           rdf:resource="http://purl.org/dc/dcmitype/StillImage" />
      </cc:Work>
    </rdf:RDF>
  </metadata>
  <defs
     id="defs4718" />
  <sodipodi:namedview
     pagecolor="#ffffff"
     bordercolor="#666666"
     borderopacity="1"
     objecttolerance="10"
     gridtolerance="10"
     guidetolerance="10"
     inkscape:pageopacity="0"
     inkscape:pageshadow="2"
     inkscape:window-width="1920"
     inkscape:window-height="1017"
     id="namedview4716"
     showgrid="false"
     inkscape:zoom="5.1304348"
     inkscape:cx="20"
     inkscape:cy="23"
     inkscape:window-x="1912"
     inkscape:window-y="-8"
     inkscape:window-maximized="1"
     inkscape:current-layer="svg4700" />
  <!-- Generator: Sketch 52.6 (67491) - http://www.bohemiancoding.com/sketch -->
  <title
     id="title4702">Group</title>
  <desc
     id="desc4704">Created with Sketch.</desc>
  <g
     id="Page-1"
     stroke="none"
     stroke-width="1"
     fill="none"
     fill-rule="evenodd"
     style="fill:#444444;fill-opacity:1">
    <g
       id="Group"
       style="fill:#444444;fill-opacity:1">
      <g
         id="book-alt-duotone"
         fill="#FF7533"
         style="fill:#444444;fill-opacity:1">
        <path
           d="M8.57142857,40.25 C6.85714286,40.25 5.71428571,39.1 5.71428571,37.375 C5.71428571,35.65 7.14285714,34.5 8.57142857,34.5 L37.0830357,34.5 C36.9107143,35.9590625 36.9258929,38.8466406 37.1303571,40.25 L8.57142857,40.25 Z"
           id="Path"
           opacity="0.4"
           style="fill:#444444;fill-opacity:1" />
        <path
           d="M8.57142857,34.5 L37.8571429,34.5 C39.0406102,34.5 40,33.534614 40,32.34375 L40,2.875 C40,1.28718134 38.7208136,9.72258517e-17 37.1428571,0 L8.57142857,0 C3.83755929,-2.91677555e-16 5.79731787e-16,3.86154403 0,8.625 L0,37.375 C5.79731787e-16,42.138456 3.83755929,46 8.57142857,46 L37.8571429,46 C39.0406102,46 40,45.034614 40,43.84375 L40,42.40625 C40,41.215386 39.0406102,40.25 37.8571429,40.25 L8.57142857,40.25 C6.85714286,40.25 5.71428571,39.1 5.71428571,37.375 C5.71428571,35.65 7.14285714,34.5 8.57142857,34.5 Z"
           id="path4710"
           style="fill:#444444;fill-opacity:1" />
      </g>
      <g
         id="code-duotone"
         transform="translate(8.571429, 7.546875)"
         fill="#FFFFFF"
         style="fill:#444444;fill-opacity:1" />
    </g>
  </g>
</svg>
